<svg width="122" height="122" viewBox="0 0 122 122" fill="none" xmlns="http://www.w3.org/2000/svg">
<path d="M46.3938 92.25H75.6H46.3938ZM61 4.75V11V4.75ZM100.775 21.225L96.3562 25.6437L100.775 21.225ZM117.25 61H111H117.25ZM11 61H4.75H11ZM25.6437 25.6437L21.225 21.225L25.6437 25.6437ZM38.9 83.1C34.5304 78.7293 31.555 73.161 30.3499 67.0994C29.1447 61.0377 29.7641 54.7548 32.1296 49.0451C34.495 43.3354 38.5004 38.4553 43.6393 35.0218C48.7781 31.5884 54.8197 29.7558 61 29.7558C67.1803 29.7558 73.2219 31.5884 78.3607 35.0218C83.4996 38.4553 87.505 43.3354 89.8705 49.0451C92.2359 54.7548 92.8553 61.0377 91.6501 67.0994C90.445 73.161 87.4696 78.7293 83.1 83.1L79.675 86.5188C77.7169 88.4772 76.1638 90.8021 75.1043 93.3608C74.0448 95.9195 73.4996 98.6619 73.5 101.431V104.75C73.5 108.065 72.183 111.245 69.8388 113.589C67.4946 115.933 64.3152 117.25 61 117.25C57.6848 117.25 54.5054 115.933 52.1612 113.589C49.817 111.245 48.5 108.065 48.5 104.75V101.431C48.5 95.8375 46.275 90.4688 42.325 86.5188L38.9 83.1Z" stroke="black" stroke-width="8" stroke-linecap="round" stroke-linejoin="round"/>
</svg>
