<svg width="110" height="110" viewBox="0 0 110 110" fill="none" xmlns="http://www.w3.org/2000/svg">
<path d="M105 52.2223C105.019 59.5549 103.306 66.7883 99.9999 73.3334C96.08 81.1764 90.054 87.7732 82.5968 92.3849C75.1396 96.9966 66.5457 99.4411 57.7777 99.4445C50.4451 99.4636 43.2117 97.7504 36.6666 94.4445L5 105L15.5555 73.3334C12.2496 66.7883 10.5364 59.5549 10.5555 52.2223C10.5589 43.4543 13.0034 34.8604 17.6151 27.4032C22.2268 19.946 28.8236 13.92 36.6666 10.0002C43.2117 6.69422 50.4451 4.98104 57.7777 5.00016H60.5555C72.1352 5.639 83.0723 10.5266 91.2729 18.7271C99.4734 26.9277 104.361 37.8648 105 49.4445V52.2223Z" stroke="white" stroke-width="10" stroke-linecap="round" stroke-linejoin="round"/>
</svg>
